HIERARCHY
ROOT Hips
{
	OFFSET 0.000000 0.000000 0.000000
	CHANNELS 6 Xposition Yposition Zposition Zrotation Yrotation Xrotation 
	JOINT LHipJoint
	{
		OFFSET 0.000000 0.000000 0.000000
		CHANNELS 3 Zrotation Yrotation Xrotation
		JOINT LeftUpLeg
		{
			OFFSET 1.363060 -1.794630 0.839290
			CHANNELS 3 Zrotation Yrotation Xrotation
			JOINT LeftLeg
			{
				OFFSET 2.448110 -6.726130 0.000000
				CHANNELS 3 Zrotation Yrotation Xrotation
				JOINT LeftFoot
				{
					OFFSET 2.562200 -7.039590 0.000000
					CHANNELS 3 Zrotation Yrotation Xrotation
					JOINT LeftToeBase
					{
						OFFSET 0.157640 -0.433110 2.322550
						CHANNELS 3 Zrotation Yrotation Xrotation
						End Site
						{
							OFFSET 0.000000 0.000000 0.000000
						}
					}
				}
			}
		}
	}
	JOINT RHipJoint
	{
		OFFSET 0.000000 0.000000 0.000000
		CHANNELS 3 Zrotation Yrotation Xrotation
		JOINT RightUpLeg
		{
			OFFSET -1.305520 -1.794630 0.839290
			CHANNELS 3 Zrotation Yrotation Xrotation
			JOINT RightLeg
			{
				OFFSET -2.542530 -6.985550 0.000000
				CHANNELS 3 Zrotation Yrotation Xrotation
				JOINT RightFoot
				{
					OFFSET -2.568260 -7.056230 0.000000
					CHANNELS 3 Zrotation Yrotation Xrotation
					JOINT RightToeBase
					{
						OFFSET -0.164730 -0.452590 2.363150
						CHANNELS 3 Zrotation Yrotation Xrotation
						End Site
						{
							OFFSET 0.000000 0.000000 0.000000
						}
					}
				}
			}
		}
	}
	JOINT LowerBack
	{
		OFFSET 0.000000 0.000000 0.000000
		CHANNELS 3 Zrotation Yrotation Xrotation
		JOINT Spine
		{
			OFFSET 0.028270 2.035590 -0.193380
			CHANNELS 3 Zrotation Yrotation Xrotation
			JOINT Spine1
			{
				OFFSET 0.056720 2.048850 -0.042750
				CHANNELS 3 Zrotation Yrotation Xrotation
				JOINT Neck
				{
					OFFSET 0.000000 0.000000 0.000000
					CHANNELS 3 Zrotation Yrotation Xrotation
					JOINT Neck1
					{
						OFFSET -0.054170 1.746240 0.172020
						CHANNELS 3 Zrotation Yrotation Xrotation
						JOINT Head
						{
							OFFSET 0.104070 1.761360 -0.123970
							CHANNELS 3 Zrotation Yrotation Xrotation
							End Site
							{
								OFFSET 0.000000 0.000000 0.000000
							}
						}
					}
				}
				JOINT LeftShoulder
				{
					OFFSET 0.000000 0.000000 0.000000
					CHANNELS 3 Zrotation Yrotation Xrotation
					JOINT LeftArm
					{
						OFFSET 3.362410 1.200890 -0.311210
						CHANNELS 3 Zrotation Yrotation Xrotation
						JOINT LeftForeArm
						{
							OFFSET 4.983000 -0.000000 -0.000000
							CHANNELS 3 Zrotation Yrotation Xrotation
							JOINT LeftHand
							{
								OFFSET 3.483560 -0.000000 -0.000000
								CHANNELS 3 Zrotation Yrotation Xrotation
								JOINT LeftFingerBase
								{
									OFFSET 0.000000 0.000000 0.000000
									CHANNELS 3 Zrotation Yrotation Xrotation
									JOINT LeftHandIndex1
									{
										OFFSET 0.715260 -0.000000 -0.000000
										CHANNELS 3 Zrotation Yrotation Xrotation
										End Site
										{
											OFFSET 0.000000 0.000000 0.000000
										}
									}
								}
								JOINT LThumb
								{
									OFFSET 0.000000 0.000000 0.000000
									CHANNELS 3 Zrotation Yrotation Xrotation
									End Site
									{
										OFFSET 0.000000 0.000000 0.000000
									}
								}
							}
						}
					}
				}
				JOINT RightShoulder
				{
					OFFSET 0.000000 0.000000 0.000000
					CHANNELS 3 Zrotation Yrotation Xrotation
					JOINT RightArm
					{
						OFFSET -3.136600 1.374050 -0.404650
						CHANNELS 3 Zrotation Yrotation Xrotation
						JOINT RightForeArm
						{
							OFFSET -5.241900 -0.000000 -0.000000
							CHANNELS 3 Zrotation Yrotation Xrotation
							JOINT RightHand
							{
								OFFSET -3.444170 -0.000000 -0.000000
								CHANNELS 3 Zrotation Yrotation Xrotation
								JOINT RightFingerBase
								{
									OFFSET 0.000000 0.000000 0.000000
									CHANNELS 3 Zrotation Yrotation Xrotation
									JOINT RightHandIndex1
									{
										OFFSET -0.622530 -0.000000 -0.000000
										CHANNELS 3 Zrotation Yrotation Xrotation
										End Site
										{
											OFFSET 0.000000 0.000000 0.000000
										}
									}
								}
								JOINT RThumb
								{
									OFFSET 0.000000 0.000000 0.000000
									CHANNELS 3 Zrotation Yrotation Xrotation
									End Site
									{
										OFFSET 0.000000 0.000000 0.000000
									}
								}
							}
						}
					}
				}
			}
		}
	}
}
MOTION
Frames: 5
Frame Time: 0.008333
8.701048 18.335435 -1.416749 0.982038 -8.584418 5.697251 -2.466631 -1.710342 -0.281452 -16.862850 -1.534609 -20.867783 -1.881072 9.296077 24.330304 1.247315 0.304941 10.231717 0.000900 -0.197500 -0.542700 -0.449597 0.966769 -0.862981 14.881557 8.009004 -19.738159 -10.540616 -19.195712 64.224866 0.723372 -3.834518 17.235669 -1.130900 6.754200 -18.989300 -0.658382 3.478157 1.762251 0.434818 4.549016 -3.622525 -3.026921 2.255330 -1.027477 -2.626731 -0.775912 -10.727198 4.046403 -0.971975 13.111952 0.294900 -0.298000 7.135400 1.916170 -9.069431 0.224252 -88.913381 4.513711 -4.772312 3.710474 -7.850600 -0.970261 -0.214235 1.706102 18.196539 20.270410 -9.958433 -4.402400 -7.125000 0.000000 0.000000 -4.290200 17.643300 2.795900 -3.739300 9.557977 0.603000 87.243911 0.830544 24.188990 -22.668857 32.832780 -9.248981 1.799622 1.829464 -20.763359 -19.093858 -35.272638 12.921900 7.125000 0.000000 0.000000 16.578600 -67.086400 -8.916300 
8.707023 18.350880 -1.161966 1.088743 -8.169607 5.458225 -2.548139 -1.578757 -0.052755 -17.189227 -1.607053 -19.680531 -1.923461 9.116909 24.058993 1.304376 0.034282 9.666823 0.006400 -0.515200 -1.415800 -0.468141 1.056581 -1.058030 14.846513 7.832729 -20.633861 -10.343683 -19.270577 63.851062 0.591859 -3.189408 16.272701 -1.213300 6.987300 -19.677900 -0.575299 3.335156 1.590293 0.435076 4.388394 -3.539817 -3.067716 2.135532 -0.620121 -2.585105 -0.905353 -10.782870 3.982311 -1.143576 13.172801 0.248800 -0.380400 7.134100 1.910651 -9.129695 0.226863 -88.546983 3.297437 0.980296 4.438929 -8.897467 -1.054313 -0.428184 1.545788 13.605772 20.071124 -8.214376 -3.658200 -7.125000 0.000000 0.000000 -4.357500 19.673500 2.643700 -3.757211 9.530087 0.618743 88.075821 -0.166777 23.410730 -21.304128 31.707635 -8.511769 1.853547 1.725362 -20.058116 -20.163276 -34.484725 13.329700 7.125000 0.000000 0.000000 14.356100 -66.551500 -7.523800 
8.705332 18.378162 -0.914060 1.146909 -7.675246 5.371250 -2.631492 -1.473617 0.149882 -17.356879 -1.819214 -18.618095 -1.983557 8.918681 23.720326 1.381722 -0.248908 9.635062 0.004000 0.406900 1.118000 -0.488465 1.166472 -1.252059 14.912697 7.597319 -21.657492 -10.070325 -19.325687 63.284868 0.426651 -2.457688 15.135204 -1.306500 7.240800 -20.430700 -0.614497 3.114645 1.418399 0.470738 4.111083 -3.502297 -2.936556 1.962210 -0.447760 -2.519920 -0.936315 -10.560598 3.918790 -1.199156 13.089593 0.180800 -0.405300 6.988800 1.959661 -9.188459 0.218432 -88.389635 2.404531 5.923291 5.460964 -10.269690 -1.242131 -0.548721 1.435230 9.421697 20.331005 -7.683683 -3.477400 -7.125000 0.000000 0.000000 -4.164800 20.299600 2.467700 -3.771481 9.506304 0.652388 88.899640 -1.388580 22.494718 -20.307391 30.901946 -8.039890 1.915725 1.644224 -18.862973 -21.780692 -34.531088 14.355700 7.125000 0.000000 0.000000 12.283800 -66.982500 -6.543600 
8.704994 18.391014 -0.679007 1.255134 -7.089151 5.361107 -2.691037 -1.401856 0.327817 -17.552060 -2.017105 -17.803686 -2.022406 8.778431 23.523168 1.524397 -0.745228 9.580574 0.063200 1.621900 4.462000 -0.524097 1.297262 -1.444220 14.880208 7.414463 -22.798449 -9.756850 -19.365876 62.565381 0.232180 -1.712488 14.197675 -1.033800 6.467000 -18.145700 -0.778383 2.877198 1.403277 0.517753 3.802119 -3.535621 -2.688442 1.778054 -0.597796 -2.576168 -0.887824 -10.332846 3.889853 -1.125228 13.194903 0.166400 -0.371300 6.999500 2.000928 -9.267160 0.186630 -88.161618 1.549243 10.085858 6.269545 -11.331264 -1.409173 -0.613877 1.363427 5.895909 20.453546 -7.637052 -3.464700 -7.125000 0.000000 0.000000 -4.094200 20.376800 2.418600 -3.758376 9.527853 0.667617 89.354669 -2.852568 21.932230 -19.314170 30.068680 -7.576220 1.929601 1.646261 -18.524811 -22.454380 -34.769181 14.875900 7.125000 0.000000 0.000000 11.632400 -67.406300 -6.305000 
8.701499 18.381318 -0.450153 0.937709 -6.447461 5.271066 -2.757358 -1.286654 0.525707 -17.314834 -2.304533 -16.816878 -2.035942 8.629331 23.299593 1.533809 -0.819250 8.883771 0.000200 -0.079400 -0.218100 -0.541418 1.411956 -1.628699 15.264960 7.397452 -23.785239 -9.409595 -19.393353 61.776466 0.071374 -1.135068 13.485577 -0.382500 3.971900 -10.997700 -0.514276 2.637684 1.584611 0.605125 3.491388 -3.560170 -2.437478 1.588995 -0.737755 -2.714017 -0.841341 -10.297567 3.902024 -1.034127 13.383838 0.204900 -0.332900 7.120200 2.040005 -9.357062 0.154569 -87.841205 0.540574 13.924435 7.020832 -12.279150 -1.576190 -0.706514 1.293336 2.560541 20.775342 -7.324760 -3.391100 -7.125000 0.000000 0.000000 -3.848200 20.721000 2.242700 -3.714651 9.557471 0.682240 89.567115 -4.058977 21.651369 -18.044286 28.960693 -7.056448 1.942258 1.730623 -19.077453 -23.932994 -35.715387 16.221400 7.125000 0.000000 0.000000 10.547000 -68.782900 -6.040000 
